<?xml version="1.0" encoding="UTF-8" standalone="no"?>
<svg
   viewBox="0 0 24 24"
   width="24"
   height="24"
   version="1.1"
   id="svg10"
   sodipodi:docname="touchscreen-on.svg"
   inkscape:version="1.1.2 (0a00cf5339, 2022-02-04)"
   xmlns:inkscape="http://www.inkscape.org/namespaces/inkscape"
   xmlns:sodipodi="http://sodipodi.sourceforge.net/DTD/sodipodi-0.dtd"
   xmlns="http://www.w3.org/2000/svg"
   xmlns:svg="http://www.w3.org/2000/svg">
  <sodipodi:namedview
     id="namedview12"
     pagecolor="#505050"
     bordercolor="#eeeeee"
     borderopacity="1"
     inkscape:pageshadow="0"
     inkscape:pageopacity="0"
     inkscape:pagecheckerboard="0"
     showgrid="false"
     inkscape:zoom="35.213881"
     inkscape:cx="8.0792004"
     inkscape:cy="14.894695"
     inkscape:window-width="1728"
     inkscape:window-height="1132"
     inkscape:window-x="0"
     inkscape:window-y="0"
     inkscape:window-maximized="1"
     inkscape:current-layer="svg10" />
  <defs
     id="defs3051">
    <style
       type="text/css"
       id="current-color-scheme">
      .ColorScheme-Text {
        color:#232629;
      }
      .ColorScheme-PositiveText {
        color:#27ae60;
      }
      </style>
  </defs>
  <path
     id="rect283"
     style="color:#000000;display:inline;fill:#eff0f1;fill-rule:evenodd;-inkscape-stroke:none;fill-opacity:1"
     d="M 1.9003906 3.9003906 L 1.9003906 4.5253906 L 1.9003906 20.099609 L 7.7207031 20.099609 L 6.3710938 18.849609 L 3.1503906 18.849609 L 3.1503906 5.1503906 L 20.849609 5.1503906 L 20.849609 18.849609 L 17.814453 18.849609 L 17.591797 20.099609 L 22.099609 20.099609 L 22.099609 3.9003906 L 1.9003906 3.9003906 z " />
  <path
     d="m 11.483045,7.2 q 1.461897,0 2.486183,1.0242693 1.024269,1.0242861 1.024269,2.4861827 0,0.913325 -0.436144,1.692241 -0.436162,0.778916 -1.178827,1.262312 v -2.752408 q 0,-0.811714 -0.541883,-1.3535973 -0.541884,-0.5418837 -1.353598,-0.5418837 -0.811713,0 -1.353597,0.5418837 -0.5418837,0.5418833 -0.5418837,1.3535973 v 2.752408 Q 8.7972948,13.13621 8.3849356,12.370468 7.9725933,11.604725 7.9725933,10.710452 q 0,-1.4618966 1.0242692,-2.4861827 Q 10.021149,7.2 11.483045,7.2 Z M 11.11098,21.441006 q -0.264389,0 -0.516716,-0.106935 -0.252311,-0.106935 -0.456663,-0.294442 L 6.8,17.949588 7.0292326,17.644164 q 0.2739235,-0.311994 0.6690666,-0.439076 0.3951432,-0.127081 0.8177444,0.01941 l 1.8801014,0.610832 v -6.922733 q 0,-0.459223 0.313847,-0.77307 0.31383,-0.3138305 0.773053,-0.3138305 0.459224,0 0.773054,0.3138305 0.313847,0.313847 0.313847,0.77307 v 3.840757 h 1.252424 q 0.06664,0 0.119013,0.0095 0.05237,0.0095 0.09046,0.01905 l 2.216268,1.108126 q 0.418205,0.21387 0.627307,0.623652 0.209102,0.409782 0.115357,0.854366 l -0.526604,2.966985 q -0.09376,0.495121 -0.477552,0.800529 -0.383805,0.305424 -0.870824,0.305424 z"
     id="path34"
     style="display:inline;fill:#eff0f1;fill-opacity:1;stroke:none;stroke-width:0.0168454;stroke-opacity:1" />
</svg>
